<?xml version="1.0" encoding="UTF-8" standalone="no"?>
<!DOCTYPE svg PUBLIC "-//W3C//DTD SVG 1.1//EN"
 "http://www.w3.org/Graphics/SVG/1.1/DTD/svg11.dtd">
<!-- Generated by graphviz version 2.47.3 (20210619.1520)
 -->
<!-- Title: dependencies Pages: 1 -->
<svg width="1933pt" height="247pt"
 viewBox="0.00 0.00 1933.00 246.80" xmlns="http://www.w3.org/2000/svg" xmlns:xlink="http://www.w3.org/1999/xlink">
<g id="graph0" class="graph" transform="scale(1 1) rotate(0) translate(4 242.8)">
<title>dependencies</title>
<polygon fill="white" stroke="transparent" points="-4,4 -4,-242.8 1929,-242.8 1929,4 -4,4"/>
<text text-anchor="middle" x="962.5" y="-8.2" font-family="sans-serif" font-size="14.00">dependencies</text>
<g id="clust1" class="cluster">
<title>cluster_AppModule</title>
<polygon fill="none" stroke="black" stroke-dasharray="1,5" points="8,-32.8 8,-230.8 1917,-230.8 1917,-32.8 8,-32.8"/>
</g>
<g id="clust16" class="cluster">
<title>cluster_AppModule_bootstrap</title>
<polygon fill="none" stroke="black" points="949,-170.8 949,-222.8 1073,-222.8 1073,-170.8 949,-170.8"/>
</g>
<g id="clust2" class="cluster">
<title>cluster_AppModule_declarations</title>
<polygon fill="none" stroke="black" points="16,-40.8 16,-92.8 1909,-92.8 1909,-40.8 16,-40.8"/>
</g>
<!-- AppComponent -->
<g id="node1" class="node">
<title>AppComponent</title>
<polygon fill="#ffffb3" stroke="black" points="1900.94,-84.8 1795.06,-84.8 1795.06,-48.8 1900.94,-48.8 1900.94,-84.8"/>
<text text-anchor="middle" x="1848" y="-62.6" font-family="Times,serif" font-size="14.00">AppComponent</text>
</g>
<!-- AppModule -->
<g id="node12" class="node">
<title>AppModule</title>
<polygon fill="#8dd3c7" stroke="black" points="1052.66,-149.8 1049.66,-153.8 1028.66,-153.8 1025.66,-149.8 969.34,-149.8 969.34,-113.8 1052.66,-113.8 1052.66,-149.8"/>
<text text-anchor="middle" x="1011" y="-127.6" font-family="Times,serif" font-size="14.00">AppModule</text>
</g>
<!-- AppComponent&#45;&gt;AppModule -->
<g id="edge1" class="edge">
<title>AppComponent&#45;&gt;AppModule</title>
<path fill="none" stroke="black" d="M1848,-85.05C1848,-107.82 1848,-143.8 1848,-143.8 1848,-143.8 1062.79,-143.8 1062.79,-143.8"/>
<polygon fill="black" stroke="black" points="1062.79,-140.3 1052.79,-143.8 1062.79,-147.3 1062.79,-140.3"/>
</g>
<!-- DirectorViewComponent -->
<g id="node2" class="node">
<title>DirectorViewComponent</title>
<polygon fill="#ffffb3" stroke="black" points="1777.29,-84.8 1618.71,-84.8 1618.71,-48.8 1777.29,-48.8 1777.29,-84.8"/>
<text text-anchor="middle" x="1698" y="-62.6" font-family="Times,serif" font-size="14.00">DirectorViewComponent</text>
</g>
<!-- DirectorViewComponent&#45;&gt;AppModule -->
<g id="edge2" class="edge">
<title>DirectorViewComponent&#45;&gt;AppModule</title>
<path fill="none" stroke="black" d="M1698,-85.08C1698,-106.12 1698,-137.8 1698,-137.8 1698,-137.8 1062.68,-137.8 1062.68,-137.8"/>
<polygon fill="black" stroke="black" points="1062.68,-134.3 1052.68,-137.8 1062.68,-141.3 1062.68,-134.3"/>
</g>
<!-- GenreViewComponent -->
<g id="node3" class="node">
<title>GenreViewComponent</title>
<polygon fill="#ffffb3" stroke="black" points="1600.85,-84.8 1455.15,-84.8 1455.15,-48.8 1600.85,-48.8 1600.85,-84.8"/>
<text text-anchor="middle" x="1528" y="-62.6" font-family="Times,serif" font-size="14.00">GenreViewComponent</text>
</g>
<!-- GenreViewComponent&#45;&gt;AppModule -->
<g id="edge3" class="edge">
<title>GenreViewComponent&#45;&gt;AppModule</title>
<path fill="none" stroke="black" d="M1528,-84.91C1528,-104.14 1528,-131.8 1528,-131.8 1528,-131.8 1062.87,-131.8 1062.87,-131.8"/>
<polygon fill="black" stroke="black" points="1062.87,-128.3 1052.87,-131.8 1062.87,-135.3 1062.87,-128.3"/>
</g>
<!-- MovieCardComponent -->
<g id="node4" class="node">
<title>MovieCardComponent</title>
<polygon fill="#ffffb3" stroke="black" points="1437.59,-84.8 1292.41,-84.8 1292.41,-48.8 1437.59,-48.8 1437.59,-84.8"/>
<text text-anchor="middle" x="1365" y="-62.6" font-family="Times,serif" font-size="14.00">MovieCardComponent</text>
</g>
<!-- MovieCardComponent&#45;&gt;AppModule -->
<g id="edge4" class="edge">
<title>MovieCardComponent&#45;&gt;AppModule</title>
<path fill="none" stroke="black" d="M1365,-84.82C1365,-102.17 1365,-125.8 1365,-125.8 1365,-125.8 1063,-125.8 1063,-125.8"/>
<polygon fill="black" stroke="black" points="1063,-122.3 1053,-125.8 1063,-129.3 1063,-122.3"/>
</g>
<!-- MovieDescriptionComponent -->
<g id="node5" class="node">
<title>MovieDescriptionComponent</title>
<polygon fill="#ffffb3" stroke="black" points="1274.7,-84.8 1091.3,-84.8 1091.3,-48.8 1274.7,-48.8 1274.7,-84.8"/>
<text text-anchor="middle" x="1183" y="-62.6" font-family="Times,serif" font-size="14.00">MovieDescriptionComponent</text>
</g>
<!-- MovieDescriptionComponent&#45;&gt;AppModule -->
<g id="edge5" class="edge">
<title>MovieDescriptionComponent&#45;&gt;AppModule</title>
<path fill="none" stroke="black" d="M1183,-85.04C1183,-100.37 1183,-119.8 1183,-119.8 1183,-119.8 1063.08,-119.8 1063.08,-119.8"/>
<polygon fill="black" stroke="black" points="1063.08,-116.3 1053.08,-119.8 1063.08,-123.3 1063.08,-116.3"/>
</g>
<!-- NavBarComponent -->
<g id="node6" class="node">
<title>NavBarComponent</title>
<polygon fill="#ffffb3" stroke="black" points="1073.37,-84.8 948.63,-84.8 948.63,-48.8 1073.37,-48.8 1073.37,-84.8"/>
<text text-anchor="middle" x="1011" y="-62.6" font-family="Times,serif" font-size="14.00">NavBarComponent</text>
</g>
<!-- NavBarComponent&#45;&gt;AppModule -->
<g id="edge6" class="edge">
<title>NavBarComponent&#45;&gt;AppModule</title>
<path fill="none" stroke="black" d="M1011,-84.91C1011,-84.91 1011,-103.79 1011,-103.79"/>
<polygon fill="black" stroke="black" points="1007.5,-103.79 1011,-113.79 1014.5,-103.79 1007.5,-103.79"/>
</g>
<!-- UpdateUserComponent -->
<g id="node7" class="node">
<title>UpdateUserComponent</title>
<polygon fill="#ffffb3" stroke="black" points="930.19,-84.8 781.81,-84.8 781.81,-48.8 930.19,-48.8 930.19,-84.8"/>
<text text-anchor="middle" x="856" y="-62.6" font-family="Times,serif" font-size="14.00">UpdateUserComponent</text>
</g>
<!-- UpdateUserComponent&#45;&gt;AppModule -->
<g id="edge7" class="edge">
<title>UpdateUserComponent&#45;&gt;AppModule</title>
<path fill="none" stroke="black" d="M856,-85.04C856,-100.37 856,-119.8 856,-119.8 856,-119.8 959.05,-119.8 959.05,-119.8"/>
<polygon fill="black" stroke="black" points="959.05,-123.3 969.05,-119.8 959.05,-116.3 959.05,-123.3"/>
</g>
<!-- UserLoginFormComponent -->
<g id="node8" class="node">
<title>UserLoginFormComponent</title>
<polygon fill="#ffffb3" stroke="black" points="763.54,-84.8 592.46,-84.8 592.46,-48.8 763.54,-48.8 763.54,-84.8"/>
<text text-anchor="middle" x="678" y="-62.6" font-family="Times,serif" font-size="14.00">UserLoginFormComponent</text>
</g>
<!-- UserLoginFormComponent&#45;&gt;AppModule -->
<g id="edge8" class="edge">
<title>UserLoginFormComponent&#45;&gt;AppModule</title>
<path fill="none" stroke="black" d="M678,-84.82C678,-102.17 678,-125.8 678,-125.8 678,-125.8 959.16,-125.8 959.16,-125.8"/>
<polygon fill="black" stroke="black" points="959.16,-129.3 969.16,-125.8 959.16,-122.3 959.16,-129.3"/>
</g>
<!-- UserProfileComponent -->
<g id="node9" class="node">
<title>UserProfileComponent</title>
<polygon fill="#ffffb3" stroke="black" points="573.86,-84.8 428.14,-84.8 428.14,-48.8 573.86,-48.8 573.86,-84.8"/>
<text text-anchor="middle" x="501" y="-62.6" font-family="Times,serif" font-size="14.00">UserProfileComponent</text>
</g>
<!-- UserProfileComponent&#45;&gt;AppModule -->
<g id="edge9" class="edge">
<title>UserProfileComponent&#45;&gt;AppModule</title>
<path fill="none" stroke="black" d="M501,-84.91C501,-104.14 501,-131.8 501,-131.8 501,-131.8 959.26,-131.8 959.26,-131.8"/>
<polygon fill="black" stroke="black" points="959.26,-135.3 969.26,-131.8 959.26,-128.3 959.26,-135.3"/>
</g>
<!-- UserRegistrationFormComponent -->
<g id="node10" class="node">
<title>UserRegistrationFormComponent</title>
<polygon fill="#ffffb3" stroke="black" points="410.03,-84.8 203.97,-84.8 203.97,-48.8 410.03,-48.8 410.03,-84.8"/>
<text text-anchor="middle" x="307" y="-62.6" font-family="Times,serif" font-size="14.00">UserRegistrationFormComponent</text>
</g>
<!-- UserRegistrationFormComponent&#45;&gt;AppModule -->
<g id="edge10" class="edge">
<title>UserRegistrationFormComponent&#45;&gt;AppModule</title>
<path fill="none" stroke="black" d="M307,-85.08C307,-106.12 307,-137.8 307,-137.8 307,-137.8 959.33,-137.8 959.33,-137.8"/>
<polygon fill="black" stroke="black" points="959.33,-141.3 969.33,-137.8 959.33,-134.3 959.33,-141.3"/>
</g>
<!-- WelcomePageComponent -->
<g id="node11" class="node">
<title>WelcomePageComponent</title>
<polygon fill="#ffffb3" stroke="black" points="186.18,-84.8 23.82,-84.8 23.82,-48.8 186.18,-48.8 186.18,-84.8"/>
<text text-anchor="middle" x="105" y="-62.6" font-family="Times,serif" font-size="14.00">WelcomePageComponent</text>
</g>
<!-- WelcomePageComponent&#45;&gt;AppModule -->
<g id="edge11" class="edge">
<title>WelcomePageComponent&#45;&gt;AppModule</title>
<path fill="none" stroke="black" d="M105,-85.05C105,-107.82 105,-143.8 105,-143.8 105,-143.8 959.12,-143.8 959.12,-143.8"/>
<polygon fill="black" stroke="black" points="959.12,-147.3 969.12,-143.8 959.12,-140.3 959.12,-147.3"/>
</g>
<!-- AppComponent  -->
<g id="node13" class="node">
<title>AppComponent </title>
<polygon fill="#80b1d3" stroke="black" points="1065.44,-214.8 956.56,-214.8 956.56,-178.8 1065.44,-178.8 1065.44,-214.8"/>
<text text-anchor="middle" x="1011" y="-192.6" font-family="Times,serif" font-size="14.00">AppComponent </text>
</g>
<!-- AppModule&#45;&gt;AppComponent  -->
<g id="edge12" class="edge">
<title>AppModule&#45;&gt;AppComponent </title>
<path fill="none" stroke="black" stroke-dasharray="1,5" d="M1011,-149.91C1011,-149.91 1011,-168.79 1011,-168.79"/>
<polygon fill="black" stroke="black" points="1007.5,-168.79 1011,-178.79 1014.5,-168.79 1007.5,-168.79"/>
</g>
</g>
</svg>
